<?xml version="1.0" encoding="UTF-8"?><svg id="svg2" xmlns="http://www.w3.org/2000/svg" viewBox="0 0 514.81 474.17"><defs><style>.cls-1{fill-rule:evenodd;}</style></defs><g id="g22"><path id="path24" class="cls-1" d="m311.07,346.7c-17.19,0-104.48,1.46-114.26-1.18-1.52-17.15,12.19-15.58,33.3-15.58,12.73,0,68.92-.63,77.14.72,12.86,2.13,20.34,16.04,3.82,16.04h0Zm-89.32-30.39c.01-.38,2.63-8.83,11.02-9.87,5.73-.72,15.85-.11,22.04-.11,12.05,0,34.01-3.59,37.74,6.73,4.66,12.91-13.23,9.27-32.25,9.27-7.68,0-38.84,3.72-38.55-6.01Zm-58.72-169.25c9.68-2.56,17.56-1.94,19.13,7.31,1.48,8.75,2.17,25.88,5.82,38.02,1.15,3.83,14.79,28.25-7.91,18.94-17.45-7.14-35.51-34.01-33.14-52.61,1.11-8.75,8.04-9.52,16.1-11.66h0Zm158.96,65.02c-.42-4.52,4.18-17.63,6.31-22.56,9.06-20.91-4.07-41.43,14.37-43.23,7.8-.76,17.18,1.06,22.06,5.2,6.56,5.56,5.47,12.15,2.6,20.69-2.62,7.8-4.63,12.97-9.39,19.45-8.84,12.05-19.17,22.69-35.96,20.46Zm-74.81,81.64c-3.13-3.15,3.96-23.46-11.64-43.21-9.8-12.39-18.75-16.05-26.52-31.15l-8.75-20.05c-9.21-20.15-13.32-52.89-2.12-71.2l110.06-.84c10.99.15,12.15.94,13.35,10.8,3.01,24.67,3.44,15.52-.23,41.88-1.98,14.21-12.81,36.67-21.37,49.81-4.69,7.2-5.52,6.76-12,12.62-19.48,17.63-16.82,29.69-17.41,46.67-.15,4.27.62,3.66-1.48,5.84-2.48,2.56-18.72,2.77-21.88-1.17h0Zm-110.2-135.24c0,27.22,22.98,59.12,47.12,63.68,14.03,2.66,14.3-2.03,19.74,6.45,17.34,27,37.98,26.79,32.06,66.24-6.21,2.21-11.71,3.82-16.53,7.94-6.23,5.34-4.5,11.53-8.5,16.22-7.56,8.86-24.37-1.77-24.37,27.48,0,3.3,1.33,6.83,2.37,9.35h116.71c17.13-.01,24.18,4.18,24.18-13.48,0-4.44-5.08-13.49-7.3-15.52-3.77-3.45-11.88-4.46-17.21-6.03-4.35-10.67-1.25-13-11.57-20.11-11.65-8.04-14.22,1.25-14.22-22.84,0-20.7,17.57-28.24,26.87-40.4,7.39-9.67,3.94-13.38,19.78-14.69,24.13-2,46.32-27.46,50.66-50.87,4.69-25.32-6.16-35.04-31.36-33.98-21.17.9-8.51.61-18.12-12.11-6.93-9.18-13.26-7.73-27.19-7.7-9.75,0-97.23-.86-102.5.62-13.72,3.86-8.56,16.12-15.61,19.12-2.43,1.04-20.81-.06-29.31,2.15-7.98,2.08-15.69,11.52-15.69,18.46"/></g></svg>