<?xml version="1.0" encoding="UTF-8"?><svg id="svg2" xmlns="http://www.w3.org/2000/svg" viewBox="0 0 514.81 474.17"><defs><style>.cls-1{fill-rule:evenodd;}</style></defs><g id="g38"><path id="path40" class="cls-1" d="m211.13,135.93c34.27,0,37.53-11.83,44.07-12.58,10.84-1.24,9.41,12.58,46.5,12.58,11.58,0,26.86-3.82,37.64-7.32,5.85-1.91,5.49-4.67,12.54-2.67,1.98,6.56-.34,8.04-2.09,13.23l-7.45,46.57c0,30.5.91,17.46,5.57,41.37,3.42,17.53,17.46,26.85,16.36,35.15-.38,2.9-3.46,7.99-4.86,12.72-4.26,14.35-16.89,36.97-26.91,47.25-11.25,11.54-24.63,20.44-40.3,25.51-36.21,11.68-73.02,6.08-103.07-17.86-3.45-2.74-6.78-5.75-9.09-8.77-13.53-17.57-9.48-12.55-19.64-31.13-2.89-5.29-2.94-7.71-5.16-12.6-4.08-9.01-8.47-15.57-1.17-26.64,32.42-49.16,6.34-113.8,7.74-121.34,1.22-6.55,4.73-4.27,9.02-2.33,5.57,2.5,7.46,2.04,12.79,3.82,10.33,3.46,13.92,5.03,27.52,5.03h0Zm-63.07-23.16c-.69,9.5,16.66,54.52,14.33,84.9-3.96,51.51-31.47,48.62-19.15,75.23,5.27,11.38,9.35,24.95,16.05,34.68,16.05,23.27,4.74,8.44,22.91,27.84,12.98,13.87,48.76,27.63,74.21,27.64l32.46-4.88c4.26-1.05,5.98-2.62,9.86-3.99,35.38-12.39,59.87-43.72,70.99-81.24,4.01-13.5,9.71-10.62-1.89-25.76-14.99-19.55-17.25-48.48-15.2-73.86,1.68-20.71,15.35-50.54,9.97-61.98-.94-.28-.57-.38-2.59-.03l-35.28,12.47c-8.13,2.91-36.96,4.35-47.22-.24-5.06-2.28-18.62-12.68-22.14-12.16-9.49,1.41-9.8,18.99-53.9,14.28-28.26-3.03-43.54-18.11-53.42-12.91"/></g><g id="g42"><path id="path44" class="cls-1" d="m209.79,228.81c7.54-9.05,24.75-4.5,31.16-10.15,5.19-4.57,9.19-20.88,14.31-25.36,11.28,3.5,10.76,20.28,17.94,25.84,8.83,6.84,26.76-.77,30.92,10.89-2.2,4.05-14.44,11.38-19.24,20.19-4.07,7.51,6.72,23.09.57,32.34-6.69,2.05-18.88-10.91-28.71-10.85-5.72.04-12.71,4.75-18.98,8.18-4.07,2.24-3.95,2.94-8.27,2.44-5.6-.65-1.14.05-3.3-1.17-1.97-7.22,7.61-22.17,2.78-31.58-3.81-7.44-15.56-13.19-19.17-20.8h0Zm85.78,64.51c4.04-8.66-.02-21.47-1.7-32.03-2.22-13.93,21.51-23.87,23.73-33.44,3.11-13.36-18.15-11.88-23.59-13.07-3.67-.8-10.94-2.07-13.94-3.93-7.26-4.5-12.92-34.6-25.38-30.83-7.22,2.17-9.62,13.6-15.33,23.28-3.11,5.27-3.91,7.52-9.89,9.32-9.17,2.77-23.31,1.83-30.74,6.58-5,11.9,1.16,14.31,6.94,19.4,2.23,1.96,4.67,4.59,6.85,6.86,6.57,6.91,9.35,3.38,6.3,25.37-.65,4.7-3.44,11.56-3.08,15.38,1.39,14.73,17.46,5.9,24.1,2.65,3.7-1.81,10.64-5.96,12.94-6.48,16.13-3.67,20.67,15.6,42.77,10.94"/></g></svg>