<?xml version="1.0" encoding="UTF-8"?><svg id="svg2" xmlns="http://www.w3.org/2000/svg" viewBox="0 0 514.81 474.17"><defs><style>.cls-1{fill-rule:evenodd;}</style></defs><g id="g148"><path id="path150" class="cls-1" d="m270.76,293.89c9.23-6.46,35.44-5.4,61-32.26l5.37-5.58c5.52-6.36,4.42-8.65,10.45-11.02,3.54,5.3,5.55,9.88,8.01,17.84,1.33,4.35,2.5,4.81,3.92,8.46l16.02,42.94c.38,7.19-.37,3.46-1.65,4.79-7.91,5.96-31.5-.06-42.61,3.89-3.52,1.25-9.78,6.75-13.48,9.84l-20.09,15.61c-8.04,3.99-11.1-8.66-15.22-19.27l-9.49-26.24c-2.22-4.26-3.04-3.39-2.23-8.99h0Zm-47.22,55.93c-5.62-1.14-12.31-7.04-16.74-10.86-20.95-18.09-20.38-16.17-37.89-17.25-7.31-.45-20.26-.04-26.7-1.83-3.37-9.41,1.38-11.47,3.91-18.82,2.68-7.77,4.46-11.18,6.57-18.12,1.32-4.42,12.03-32.9,13.77-35.59,7.23-.41,6.36-.6,9.81,4.03,22.85,30.74,42.56,32.16,69.04,41.98.51,7.33-10.82,32.97-14.4,43.1-1.46,4.12-4.94,10.68-7.38,13.36h0Zm-58.85-159.36c0-7.5,1.92-11.69,3.51-18.36,3.14-13.29-1.08-3.98,5.15-16.74,6.04-12.33,9.51-18.12,17.52-26.41,21.5-22.25,42-27.31,72.45-27.31,42.77,0,84.24,44.01,84.24,87.45,0,16.46-2.14,25.16-8.96,41.05-7.9,18.39-22.27,32.9-40.22,42.05-21.77,11.09-27.58,10.04-50.16,10.04-24.57,0-55.51-20.02-67.99-41.56-2.17-3.76-2.81-3.86-4.39-6.65-6.53-11.59-11.16-29.38-11.16-43.55h0Zm-8.38-1.38c0,20.87,5.17,31.94,6.26,38.97.53,3.46-2.71,12.23-4.42,16.44-1.45,3.61-2.26,3.29-3.68,7.21-1.22,3.38-1.19,5.2-2.61,8.49l-15.22,39.65c-1.42,5.25-1.21,3.55-3.27,7.7-2.22,4.49-3.88,11.13-5.99,16.03,7.72,8.18,10.69,5.74,28.9,6.92,37.12,2.41,24,.24,50.65,20.66,8.08,6.18,14,12.7,22.01,13.19,5.17-7.74,11.02-28.95,16.69-40.61l10.83-26.82c6.62,2.57,7.46,8.11,9.91,15.41l7.04,17.67c5.15,10.93,7.99,26.78,15.58,34.54,6.77-.99,35.83-25.46,39.85-28.88,12.18-10.35,52.03.34,57.98-10.78,3.68-6.86-11.35-35.34-15.15-45.16-1.32-3.41-1.02-5.13-2.44-8.51l-15.28-38.28c-4.56-15.68,14.12-59.54-15.63-98.22-15.48-20.12-18.9-21-40.53-33.54-19.68-11.42-59.63-12.45-80.81-.95-10.86,5.88-17.99,7.68-30.05,19.35-17.45,16.9-30.62,43.54-30.62,69.54"/></g><g id="g152"><path id="path154" class="cls-1" d="m205.5,176.74c7.53-3.2,29.74-3.02,35.51-8.42,4.46-4.15,8.59-23.16,16.6-27.89,6.74,4.87,13.91,25.41,16.58,27.91,6.39,5.95,27.23,4.91,35.64,8.37-1.61,9.3-16.18,16.22-21.08,24.39-5.9,9.86,6.14,30.63-1.35,35.82-5.97,3.75-19.91-11.68-31.11-10.95-4.64.31-11.2,4.53-15.55,6.64-5.64,2.75-7.79,6.12-15.11,4.67-2.62-10.19,6.29-27.75.06-36.78l-10.85-11.15c-2.72-2.69-8.62-7.45-9.34-12.61h0Zm115.02-4.35c-10.19-8.99-16.39-6.02-31.19-8.31-9.88-1.51-13.47-9.89-18.17-21.5-15.69-38.81-33.75,14.12-34.78,15.67-7.94,11.96-41.39.85-42.25,18.5-.63,13.04,24.86,19.4,24.01,35.58-.62,12.09-4.67,22.54-1.82,34.69,23.15,8.69,31.78-19.5,49.62-8.66,4.01,2.44,4.71,2.62,8.97,4.81,5.43,2.79,11.6,8.7,19.93,5.12,12.99-5.6-2.75-33.63,3.27-43.28,7.77-12.46,24.39-15.7,22.4-32.62"/></g><path id="path156" class="cls-1" d="m251.25,307.8c7.63,2.97,6.45.45,9.39-5.53,2.83-5.75,3.96-4.67,1.77-11.33-6.39-.28-7.07-1.24-10.96,10.48l-.2,6.39"/><path id="path158" class="cls-1" d="m262.74,308.24c.92-8.49-2.39-16.2-8.79-18.45-4.49,8.41-1.51,20.09,8.79,18.45"/></svg>