<?xml version="1.0" encoding="UTF-8"?><svg id="svg2" xmlns="http://www.w3.org/2000/svg" viewBox="0 0 514.81 474.17"><defs><style>.cls-1{fill-rule:evenodd;}</style></defs><g id="g132"><path id="path134" class="cls-1" d="m160.67,185.55c0-17.87,5.62-38.05,15.86-52.9,26.39-38.27,74.59-52.37,117.96-35.5,15.4,6,34.47,21.28,43.18,36.38,2.44,4.25,5.19,8.19,8.13,13.85,3.81,7.3,8.41,26.12,8.41,35.42,0,29.75-8.58,50.19-27.72,71.01-7.35,7.99-14.45,12.6-26.26,19.04-19.13,10.42-31.6,9.68-51.59,9.68-28.73,0-58.77-21.79-72.13-42.66-11.24-17.57-15.83-33.18-15.83-54.32h0Zm-9.07,1.37c1.82,16.7,1.65,29.67,9.36,43.76,7.86,14.39,10.6,20.43,22.06,31.47,4,3.86,10.18,9.03,15.23,12.24,11.72,7.48,22.91,11.85,36.32,15.88,18.94,5.68,40.42.72,58.51-3.92,7.31-1.88,3.13-1.53,8.35-4.12,19.33-9.55,30.14-17.99,43.33-36.25,10.36-14.33,18.61-39.95,18.65-59.04.04-18.97-8.16-46.2-19.46-61.05-20.99-27.58-50.25-45.54-87.07-45.33-29.85.17-54.9,12.32-74.89,31.48-8.05,7.7-16.61,22.25-21.71,31.84-4.68,8.78-9.9,31.75-8.67,43.05"/></g><g id="g136"><path id="path138" class="cls-1" d="m207.02,177.32c6.37-11.68,27.28-3.72,33.76-11.2,5.07-5.83,10.12-23.33,15.34-28.47,10.47,2.84,10.74,20.49,18.28,28.18,7.66,7.82,27.42-.28,34.73,11.48-8.88,16.96-26.52,10.87-20.75,41.79.85,4.51,3.24,8.78,2.74,12.93-1.48,12.16-19.29-7.08-32.73-9.15-7.93-1.23-23.42,13.79-32.36,13.35-3.24-14.12,3.04-21.46,3.08-34.23-2.41-5.69-7.04-8.66-11.08-12.67-5.61-5.59-9.52-8.12-11.01-12.02h0Zm88.47,69.4c16.62-15.44-13.18-31.24,10.93-53.42,15.84-14.55,16.04-12.19,11.98-27.35-13.35-2.48-34.61-2.82-40.77-12.89-1.99-3.25-5.52-14.83-11.04-21.91-.18-.23-.44-.53-.62-.75-16.32-19.98-24.01,24.68-33.56,28.7-15.55,6.51-37.96.82-38.2,15.51-.06,3.29,1.86,6.05,4.03,8.47,2.26,2.54,1.45,1.38,3.53,3.31l16.67,17.7c5.12,8.97-11.78,34,.87,41.69,10.13,6.17,27.35-11.21,37.14-12.74,8.71-1.38,22.98,15.47,39.05,13.68"/></g><g id="g140"><path id="path142" class="cls-1" d="m175.47,364.15c-.36-6.39,1.15-9.02,3.89-12.53,3.92-5.01,4.59-3.98,12.25-4.39,8.61-.47,17.8-3.88,26.07-6.45.3-11.77,2.23-36.7-.75-46.02-9.13-4.06-8.3-2.07-8.3,12.94,0,21.49,6.6,28.36-18.29,30.02-9.3.62-14.37,1.46-18.56,7.74-2.9,4.35-6.58,13.37-6.58,19.88,0,8.79.14,10.15,8.67,10.16,27.81.01,157.28,1.61,174.24-.8.66-2.2,1.48-4.87,1.48-8,0-21.36-8.49-27.95-24.78-29.02-2.46-.16-5.25-.2-7.6-.56-20.14-3.06-2.9-36.51-11.82-43.12-4.39-3.23-6.86-.32-6.86,5.46,0,46.85-3.1,41.54,9.4,44.26,5.01,1.11,8.03,2.74,14.53,3.33,5.53.52,11.04.11,14.06,3.83,2.23,2.76,4.05,9.85,3.56,11.57-3.29,6.4-28.8,3.89-39.97,3.89-22.4.01-116.04,1.92-124.65-2.21"/></g><g id="g144"><path id="path146" class="cls-1" d="m254.18,307.77c-.11.3-7.28,41.7,5.4,33.43,3.97-2.6,3.13-14.78,3-19.84-.19-8.91-.3-13.66-8.4-13.59"/></g></svg>