<?xml version="1.0" encoding="UTF-8"?><svg id="svg2" xmlns="http://www.w3.org/2000/svg" viewBox="0 0 514.81 474.17"><defs><style>.cls-1{fill-rule:evenodd;}</style></defs><path id="path56" class="cls-1" d="m281.91,351.09c1.61-6.67,4.4-9.55,8.74-12.88,3.65-2.81,9.6-6.25,15.05-5.61,5.8.68,26.36,10.32,30.14,13.51-4.42,9.91-10.39,11.48-25.44,17.37-10.33,4.04-23.68-4.72-28.49-12.39Zm110.73-45.29c-3.43,7.4-12.03,18.39-18.81,22.28-4.96,2.84-8.25,4.95-15.92,2.99-23.86-6.11-5.84-29.11,5.89-32.2,4.89-1.29,13.5-1.61,19.44-1.6,8.75.01,13.4-.09,9.4,8.53Zm5.89-54.89c-1.6,13.72-4.3,19.21-17.66,23.92-7.52,2.65-10.13,2.27-13.06-3-11-19.77,7.03-30.85,18.57-38.28,17.08-10.99,13.78,3.37,12.15,17.36h0Zm-42.84-26.09c-6.17-4.97-17.33-15.51-12.03-28.43,3.26-7.95,11.61-23.51,17.52-26.48,3.18,2.21,7.09,9.09,8.49,13.41.85,2.63,4.88,15.8,4.98,17.05.89,11.23-10.66,21.4-18.96,24.44Zm-25.14-56.24c0,21.16-29.7,19.17-34.94-11.35-.67-3.91-1.73-6.8-2.4-9.88-1.57-7.2-.5-5.61-.28-7.28l.68-2.36c8.39-1.44,17.26,4.99,23.5,8.99,9.06,5.81,13.43,10.85,13.43,21.88h0Zm-9.17,22.88l12.64.44c2.35,6.53-4.95,14.91,6.5,30.25,13.05,17.49,13.34,10.97,27.2,11.08-.94,2.13-5.47,6.77-7.26,10.15-6.14,11.56-4.56,17.4-2.13,29.52,2.31,11.52,2.91,5.07,7.08,12.32-4.09,10.27-12.5,3.41-21.44,17.15-7.51,11.56-5.74,16.25-7.84,30.49-10.28.68-8.83-3.59-18.11-5.92-34.67-8.69-46.92,17.47-46.68,22.79,2.11,7.08,9.59,14.96,15.93,19,17.26,11.01,37.69-.72,52.1-9.25,24.07-14.25-.27-18.23,11.17-20.49,6.84-1.35,10.52,4.41,26.68-2,11.45-4.55,30.98-35.61,30.26-41.91-1.07-9.31-16.3-6.4-27.05-9.99,5.64-4.75,28.59-5.03,28.59-43.77,0-35.31-.84-28.28-29.89-15-3.05,1.39-1.77.88-2.72,1.43-4.21,2.37.43,1.31-6.24,3.25,1.67-7.87-.74-.51,3.85-7.08.24-.33.89-1.28,1.13-1.61,4.72-6.64,6.02-7.32,7.13-16.56,1.42-11.8-9.81-51.64-21.72-48.56-10.19,2.63-9.01,16.72-19.98,17.39l-.79-3.43c-1.17-9.48-.54-16.48-9.3-25.41-8.09-8.25-35.84-25.13-44.14-19.07-5.91,4.32-2.45,13.4-1.35,20.76,1.87,12.51,2.87,30.73,15.57,37.88,5.46,3.07,14.36,6.16,20.8,6.16"/><path id="path58" class="cls-1" d="m180.11,345.59c4.21-3.75,23.27-12.72,30.12-12.8,6.69-.09,12.87,3.89,17.27,7.91,9.71,8.84,2.68,16.11-7.53,21.49-9.71,5.13-21.89-.01-30.57-5.33-5.19-3.19-9.7-2.95-9.29-11.27Zm-19.41-41.04c3.1,2.96,16.5,18.97-.49,25.37-21.81,8.21-37.52-20.21-40.65-29.97,4.04-3.65,30.97-5.07,41.15,4.6Zm-15.34-29.35c-10.86,2.57-22.76-5.2-26.21-11.45-2.87-5.23-6.01-27.08-4.23-32.63,7.18-3.36,11.67.71,16.4,4,11.15,7.75,26.6,17.45,14.04,40.08h0Zm15.69-50.35c-33.85-7.52-17.03-46.35-7.07-54.85,6.65,3.15,14.09,20.09,16.93,26.93,5.09,12.28-5.34,20.83-9.86,27.92Zm24.89-45.59c-3.31-16.08-.38-24.91,9.25-31.27,6.51-4.29,18.53-13.48,26.83-9.13-2.56,12.59-.72,24.19-7.89,33.56-5.93,7.76-18.75,12.88-28.19,6.84Zm-12.75-3.87c-5.1-.44-7.29-6.28-9.52-9.68-16.69-25.43-25.06,10.03-30.18,26.27-6.96,22.07,8.03,29.39,11.89,37.96-11.21,1.01-39.61-29.32-39.61-3.75,0,53.36,10.98,47.31,28.6,58.61-10.05,3.49-14.89,2.56-24.67,4.31-4.49,12.08,2.3,16.91,9.14,28.48,2.04,3.44,3.4,5.27,6.25,8.83,16.5,20.56,32.11,11.15,42.56,12.61-2,15.73-11.97,7.47,14.16,24.01,20.59,13.04,36.9,15.13,54-1.51.2-.19.49-.48.69-.67.6-.59,1.69-1.51,2.13-1.97,12.18-13.24-8.39-39.71-37.07-33.05-18.25,4.24-13.35,8.45-22.08,6.61l-.93-3.49c-1.25-9.63-1.45-26.77-17.67-35.57-5.66-3.07-8.15-1.75-11.11-8.2,3.21-7.65,4.75-.57,6.81-11.03,5.65-28.65-4.3-31.4-8.89-40.84,6.64-.72,9.72,2.57,15.86-.27,5.09-2.36,7.51-6.48,10.34-10.29,11.2-15.09,3.67-14.67,6.73-30.4,7.51-2.77,29.03,2.49,41.15-15.04,5.71-8.27,11.4-35.27,9.05-47.21-2.57-13.08-30.92,4.08-37.39,7.88-21.71,12.73-15.18,29.08-20.23,37.4"/><path id="path60" class="cls-1" d="m197.97,257.77c0-13.88,4.65-29.11,14.29-39.11l10.59-10.01c22.23-14.85,51.65-13.87,71.22,5.07,17.9,17.32,24.45,43.52,13.11,66.92-16.51,34.09-63.19,43.72-91.79,15.88-7.55-7.36-17.43-23.72-17.43-38.75h0Zm48.85-67.84c-15.67,4.11-30.18,7.04-42.51,23.48-10.05,13.41-17.17,27.45-14.26,50.63.48,3.85,1.29,10.97,2.54,14.08,4.28,10.59,12.02,21.12,20.84,28.61,2.45,2.08,7.09,5.52,9.57,6.91,2.77,1.56,3.29,1.36,5.78,2.48,3.29,1.47,2.35,1.49,5.47,2.73,20.3,8.08,55.04.79,72.31-21.03,3.31-4.17,4.86-5.68,6.71-9.72,5.29-11.52,10.8-20.84,7.45-40.59-2.3-13.55-1.87-14.49-7.99-25.04-1.74-2.99-1.77-2.48-3.37-4.84l-5.05-7.28c-.19-.21-.49-.49-.69-.69s-.49-.48-.69-.68-.49-.49-.69-.69c-6.07-5.83-16.69-12.97-25.58-15.45-8.85-2.47-20.62-5.32-29.84-2.91"/><path id="path62" class="cls-1" d="m233.29,244.86c20.06-5.35,10.05-.97,20.86-14.32,6.66,1.77,4.54,5.09,9.2,9.75,4.93,4.93,7.43,1.33,14.08,5.12-2.77,12.24-5.16,6.19-7.29,13.33-2,6.75,1.83,8.09-2.28,15.44-5.08-1.11-7.06-4.21-13.43-3.71-7.31.57-12.99,9.59-13.86-3.09-1.49-21.91-3.92-5.84-7.29-22.52h0Zm-18.74-6.09c.51,12.92,11.12,14.03,15.06,21.56,2.38,4.56.88,11.57.18,16.77-1.31,9.67-2.42,6.45,2.74,13.07,18.66-7.87,20.15-14.04,34.24-5.25,3.75,2.35,8.64,4.07,12.68,5.04,2.57-6.83,3.53-2.97,1.93-11.24-1.09-5.64-2.28-10.4-1.3-16.83,1.8-5.2,28.09-21.61,9.53-24.57-2.04-.32-5.64-.32-7.5-.52-19.83-2.19-14.13-15.41-26.59-25.89-7.94,4.71-7.99,13.44-14.05,20.45-6.1,7.07-16.39,4.88-26.93,7.41"/></svg>