<?xml version="1.0" encoding="UTF-8"?><svg id="svg2" xmlns="http://www.w3.org/2000/svg" viewBox="0 0 514.81 474.17"><defs><style>.cls-1{fill-rule:evenodd;}</style></defs><path id="path46" class="cls-1" d="m192.79,251.26c6.56-2.76,15.42-3.36,23.3-5.29,21.56-5.28,16.23,2.97,24.67-12.43l7.04-13.53c3.97-7.32,4.77-11.99,11.81-15.19l9.18,18.07c2.23,4.81,2.62,3.92,4.69,9.03,8.71,21.47,29.78,10,49.45,18.97-1.55,6.61-8.51,11.11-13.22,15.93-3.84,3.95-10.39,9.87-13.67,13.84-3.44,4.17-3.26,5.2-2.24,10.36l5.23,35.13c-6.96,2.75-5.49,2.07-10.43-.84-34.19-20.15-31.11-16.92-60.73-.37-26.21,14.64,1.37-31.65-8.04-43.39-5.54-6.91-25.48-21.49-27.02-30.29h0Zm18.98,39.71c0,20.79-10.19,33.67-2.97,42.69.02.03,2.85,2.59,2.9,2.61,13.88,8.97,33.48-17.23,49.04-14.73,6.81,1.09,33.6,22.01,43.18,15.87,9.02-5.79-1.45-38.96-1.04-46.27.88-15.44,46.06-33.75,24.76-48.88-9.78-6.96-36.21.69-44.8-12.77-9.2-14.44-13.47-33.8-23.1-35.16-10.43-1.48-12.39,6.93-16.09,13.28-12.7,21.76-6.84,26.45-27.58,30.01-6.07,1.05-20.77,1.23-25.59,3.21-11.05,4.53-9.13,15.92,1.51,25.92,9.63,9.07,19.77,16.03,19.77,24.21"/><path id="path48" class="cls-1" d="m83.75,216.86c.08,8.29-.18,6.84,4.2,11.25l20.91,20.24c13.48,13.85-10.19,49.01,5.42,56.13,6.84,3.12,17.54-3.25,23.35-6.6l10.19-4.96c4.81-2.12,4.71-4.48,10.44-4.87,5.38-.36,16.33,6.71,20.97,9.29,8.07,4.49,19.8,12.29,19.89,3.36.05-5.23-11.28-8.81-21.75-15.16-2.55-1.55-2.67-1.29-5.61-2.67-4.71-2.2-5.56-4.43-11.32-5.07-5.25-.57-16.61,5.92-20.74,8.37-8.26,4.89-27.31,17.75-20.84-2.95,1.61-5.13,1.82-6.08,2.34-11.4,3.22-33.08,2.11-19.35-21.29-44.77-1.59-1.73-5.07-6.59-5.91-8.75,6.96-5.43,39.11-4.15,44.97-11.08,7.02-8.31,13.09-32.91,20.61-35.4,5.18,4.53,13.32,23.15,17.69,31.41l3.16,5.37c1.5,1.31,45.3,12.23,47.04,4.05,1.32-6.21-6.39-6.33-11.62-6.8-10.26-.91-24.85-.36-30.88-7.53-4.71-5.61-20.29-54.93-34.92-32.21-19.53,30.33-7.82,35.92-37.95,38.96-12.57,1.28-24.11.59-28.35,11.76"/><path id="path50" class="cls-1" d="m287.28,214.29c8.58,2.69,39.72-.67,46.5-5.71,6.06-4.51,16.06-30.52,19.28-35.65,10.11.68,7.86,5.77,12.97,14.48,3.58,6.09,5.6,12.47,9.07,18.33,4.96,8.37,33.54,7.17,44.83,11.56.49,7.51-10.64,16.96-17.29,23.07-3.35,3.09-5.38,3.32-8.38,6.76-8.23,9.41,5.39,31.97,1.96,47.08-6.89,1.04-5.91.44-10.89-2.57l-19.84-10.37c-12.83-7.37-19.35-.29-42.67,12.37-3.24,1.76-8.78,6.61-4.22,10.08,4.84,1.52,16.52-6.67,21.64-9.09,10.05-4.77,12.84-9.85,24.76-3.27,7.17,3.96,14.1,7.19,21.49,11.44,10.63,6.11,20.33,2.08,20.33-10.47,0-13.29-5.33-17.2-5.33-35.68,0-11.05,41.34-30.56,26.25-45.84-9.42-9.53-38.42-.84-46.88-13.55-9.64-14.47-11.41-36.33-25.06-35.93-18.25.52-15.63,39.63-37.25,42.85-12.26,1.84-28.34-1.55-31.27,10.11"/></svg>