<?xml version="1.0" encoding="UTF-8"?><svg id="svg2" xmlns="http://www.w3.org/2000/svg" viewBox="0 0 514.81 474.17"><defs><style>.cls-1{fill-rule:evenodd;}</style></defs><path id="path72" class="cls-1" d="m102.72,131.55v149.59c0,13,7.63,18.13,20.57,18.13h127.57c7.87,0,8.32-1.89,6.44-8.05-7.16-2.33-91.16-1.09-110.68-1.09-10.64,0-26.15,2.44-33.01-3.49-3.43-4.77-1.8-113.8-1.75-134.51.04-14.07-5-31.92,12.8-31.92h223.67c20.79,0,11.39,27.56,13.76,61.17,2.81,1.59,3.44,2.27,6.57,3.25,4.43-9.95,2.27-40.63,2.27-53.08,0-11.73-9.07-20.49-21.23-20.49H121.92c-11.37,0-19.2,8.6-19.2,20.49"/><path id="path74" class="cls-1" d="m273.44,266.05c-1.23-12.65,6.63-31.59,14.6-41.09,1.53-1.83,2.47-2.51,4.01-4.19,25.45-27.32,71.92-23.37,92.64-.68,3.81,4.19,10.43,13.57,13.25,19.61,11.19,23.89,3.92,54.97-14.23,72.71l-9.13,7.37c-10,6.53-25.92,12.03-36.96,11.48-16.09-.79-34.11-7.87-44.77-19.32-12.83-13.77-17.16-22.57-19.41-45.89h0Zm-8.43-6.87c0,16.27-.83,25.52,7.63,41.33,4.69,8.77,17.56,23.57,25.4,28.31,10.51,6.33,28.11,11.48,42.41,10.41,17.29-1.29,32.95-4.65,45.29-16.57,1.6-1.53,3.16-2.43,5.2-4.41,5-4.91,11.37-14.73,14.25-21.36,4.44-10.2,6.88-16.55,6.88-30.84-.01-20.32-7.28-37.97-20.69-51.29-29.72-29.52-73.84-30.07-105.21-1.25-9,8.28-21.16,28.07-21.16,45.68"/><path id="path76" class="cls-1" d="m306.26,256.79c7.65-5.72,13.03-1.52,20.84-7.88,9.07-7.37.52-12.69,14.45-14.88,12.43,29.37,15.68,11.99,28.75,22.4-1.83,6.15-9.37,9.29-12.32,15.24-3.88,7.81,3.52,11.45.76,21.19-10.43.93-10.88-6.44-21.21-5.83-10.44.63-10.89,8.92-19.75,4.09-1.13-5.01,5.23-13.05.44-21-2.96-4.92-9.31-7.44-11.96-13.33h0Zm-12.87-6.05c-.36,8.15.55,7.73,4.99,11.77,21.47,19.51,7.53,18.07,9.17,34.89,1.24,12.91,15.79,6.11,21.45,2.83,12.39-7.17,16.12-.55,23.51,2.83,8.88,4.07,18.48,1.73,17.39-9.03-1.25-12.33-8.95-13.37,1.87-23.77,30.87-29.69-10.05-24.64-15.08-27.55-5.52-4.57-5.85-13.61-11.01-19.29-12.05-13.23-20.45,11.71-21.93,13.91-8.95,13.19-15.6,1.12-30.35,13.41"/><path id="path78" class="cls-1" d="m384.94,387.66c6.81-7.81,5.11-17.61,5.09-29.72-.01-11.57,3.31-21.23-4.64-27.09-7.95,6.32-3.39,33.03-3.99,45.15-11.56-.93-16.39-8.71-23.71-13.67-10.19-6.92-16.37-14.17-22.92-11.11-16.11,7.53-39.27,41-39.27,13.63,0-10.27,2.6-25.44-2.85-33.36-7.11,1.4-5.71,4.44-5.59,12.72.28,18.64-4.11,43.45,7.76,43.45,8.79,0,12.93-5.45,22.76-12.37,22.69-15.99,17.51-17.75,33.23-6,11.45,8.55,22.85,18.57,34.12,18.37"/><path id="path80" class="cls-1" d="m163.1,169.74h119.33c4.92,0,9.17-.28,9.32-5.45.15-4.97-5.41-4.45-10.64-4.45h-119.39c-10.73,0-11.32,9.91,1.37,9.91"/><path id="path82" class="cls-1" d="m155.4,202.02c-3.53,10.47,3.31,8.11,26.91,8.11,10.88,0,57.71,1.81,64.07-3.17-4.11-10.8-29.37-5.97-42.12-5.97-11.48,0-40.57-1.6-48.85,1.04"/><path id="path84" class="cls-1" d="m153.84,247.22c8.45,2.39,61,2.19,69.17-.84l.12-6.15c-9.4-3.48-55.53-2.88-67.59-.92l-1.71,7.91"/></svg>