<?xml version="1.0" encoding="UTF-8"?><svg id="svg2" xmlns="http://www.w3.org/2000/svg" viewBox="0 0 514.81 474.17"><defs><style>.cls-1{fill-rule:evenodd;}</style></defs><g id="g102"><path id="path104" class="cls-1" d="m259.51,178.65c12.51,0,16.31-9.48,22.75-9.51.26,6.13-6.98,20.19-17.26,20.19-12.82,0-29.04,3.19-30.55-19.49l3.63,2.43c.29.17.63.34.93.5l5.3,2.74c6.46,3.79,6.06,3.13,15.2,3.13h0Zm-9.78-49.06c12.15-5.72,24.17,4.57,27.05,12.25,4.23,11.35-2.66,22.86-11.17,26.02-27.42,10.16-39.2-27.29-15.88-38.27h0Zm28.56,110.32c.16,25.05.56,51.24-.69,75.56-.63,12.24-.07,25.95-.07,38.36,0,20.41,3.37,30.25-11.05,27.23-4.72-14.05-1.13-81.19-6.98-88.71-8.56-.27-6.48,9.28-7.29,18.69-.66,7.58-1.37,16.68-1.36,24.96.03,8.88-.8,15.74-.76,24.68.03,7.29,2.96,20.19-5.76,21.02-9.94.94-7.22-11.35-7.19-19.63l.09-129.09c-.2-10.79-16.54-31.11-22.47-42.99l-24.12-40.52c-4.32-7.82-.17-11.27,5.75-14.11,8.25,3.95,17.01,24.56,22.52,32.64,11.48,16.87,13.8,29.72,25.5,29.72,38.5,0,30.14,2.16,41.92-13.31,6.1-7.99,31.07-52.44,38.91-47.51,2.76,1.73,3.6,4.26,3.33,8.29-.4,6.12-36.88,61.22-40.14,65.99-10.22,14.94-10.24,12.32-10.14,28.74h0Zm-52.72-82.59c-8.95-3-11.74-24.5-24.12-29.65-6.19-2.57-15.4.83-18.7,5.28-8.41,11.32.87,23.83,9.14,35.98l30.55,51.71c5.93,10.14,4.92,7.05,4.82,22.03l.29,133.23c.03,14.42,12.29,18.14,25.22,13.54,9.34-3.32,3.75-1.62,10.15.69,8.36,3.02,16,1.83,20.34-4.33,5.95-8.42,2.92-12.34,3.53-23.73,1.57-28.98.66-77.44.66-108.42,0-33.24,3.75-29.74,21.84-58.59,1.07-1.69,1.26-2.33,2.63-4.29,2.23-3.17.57-.11,2.9-3.96,7.28-12.02,24.06-33.91,23.8-44.28-.46-17.68-23.06-17.8-30.98-6.79-5.09,7.09-10.79,18.51-16.98,24.17-6.7,6.12-1.14,3.73-5.52,7.98-4.1-6.25,1.47-2.53,2.4-14.32,2.4-30.88-33.54-46.32-52.32-24.35-10.21,11.94-4.75,19.69-9.65,28.11"/></g><g id="g106"><path id="path108" class="cls-1" d="m205.98,278.01c.26-15.06-59.59-45.19-93.91-16.77-6.49,5.37-12.64,12.39-23.35,13.78-6.98.89-17.9,1.57-22.19-2.66-5.46-5.29-6.83-22.22-6.14-30.13,6.63,1.16,15.56,11.99,34.93,2.2,18.25-9.24,25.81-23.84,66.24-15,24.11,5.26,36.32,25.08,43.47,20.76,7.67-4.64-16.04-18.74-19.15-20.35-3.57-1.84-4.18-2.72-7.06-3.92-2.49-1.03-6.11-1.62-8.59-2.45-14.94-5-17.28-5.95-38.31-5.21-7.59.27-11.86,1.14-17.5,4.23-22.15,12.22-32.13,23.74-44.49,12.09-5.21-4.91-4.88-8.61-9.55-12.52-5.37-4.49-9.65-1.08-10.94,5.52-1.92,9.82,3.26,29.26,4.44,39.74,1.19,10.61.16,9.21,8.34,13.4,8.21,4.22,6.9,3.83,17.5,4.02,34.37.61,31.87-22.26,60.85-26.52,18.23-2.69,36.59,6.25,50.37,14.58,6.69,4.06,7.4,7.49,15.02,5.21"/></g><g id="g110"><path id="path112" class="cls-1" d="m374.79,226.65c21.6,0,23.82,6.26,39.81,14.67,21.35,11.2,20.76,7.85,40.07,1.06.77,7.49-2.43,23.85-4.82,30.19-2.55,2.73-15.51,2.85-20.17,2.85-17.17,0-28.36-20.02-42.66-23.12-24.66-5.32-15.04-4.24-38.47-.24-9.5,1.61-8.68,2.5-16.25,5.71-7.12,3-22.45,10.96-24.51,19.19,7.49,4.9,10.08-1.99,25.69-9.78,23.74-11.83,45.24-13.84,65.86,3.09,7.43,6.11,16.37,13.46,28.99,14.62,10.72.96,28.52-2.32,31.85-10.31l5.59-44.27c0-6.68-1.79-7.48-5.89-10.28-15.27,3.62-9.92,27.5-34.91,16.4-27.6-12.27-13.08-18.15-57.03-18.15-23.24,0-63.39,22.51-59.44,30.96,3.87,8.26,13.25-6.48,29.14-13.52,11.05-4.9,23.49-9.06,37.16-9.06"/></g><path id="path114" class="cls-1" d="m93.67,119.46c-3.8,7.84.89,11.75,5.25,16.23l23.27,26.12c6.37,6.61,9.52,13.11,14.48,10.39,7.2-3.96-10.76-19.45-17.44-27.97l-17.64-19.47c-3.35-3.47-3.09-4.85-7.92-5.29"/><g id="g116"><path id="path118" class="cls-1" d="m421.36,119.57c-5.87.39-4.55,1.48-10.02,7.31-1.78,1.9-1.9,1.79-3.4,3.47-3.63,4.06-8.84,9.88-11.52,13.18-7.13,8.76-25.06,24.27-17.94,28.44,4.67,2.74,11.33-7.35,16.15-12.41l20.48-23.4c4.43-4.51,10.39-8.33,6.26-16.59"/></g><path id="path120" class="cls-1" d="m70.3,174.03c0,6.51,4.08,4.53,10.93,6.81,5.85,1.93,7.36,2.53,14.07,3.72,6.36,1.13,23.93,10.43,24.91,1.97.73-6.45-5.23-6.17-10.23-6.95-7.11-1.11-7.59-2.91-13.64-4.43-5.71-1.45-8.48-.76-14.56-3.16-4.92-1.95-11.48-5.88-11.48,2.03"/><g id="g122"><path id="path124" class="cls-1" d="m395.23,189.14c10.39,2.41,14.12-2.6,24.51-4.47,5.56-1,21.4-5.22,25.09-7.89-.04-8.79-2.44-8.16-9.46-5.43-7.29,2.82-8.64,1.87-15.63,3.6-6.4,1.58-7.2,3.51-14.86,4.51-9.06,1.2-9.52-.09-9.66,9.67"/></g><g id="g126"><path id="path128" class="cls-1" d="m358.31,154.47c7.91,1.15,7.19-.73,8.34-7.77,1.07-6.53,2.7-8.51,4.02-14,1.23-5.17,1.32-9.89,2.38-15.62,1.32-7.14,2.5-8.16-3.76-9.96-4.92,4.04-6.61,13.9-7.65,22.17-1.28,10.08-6.97,16.45-3.33,25.18"/></g><path id="path130" class="cls-1" d="m150.59,155.03c13.68-.64,4.73-12.19,3.27-22.31-1.43-9.96-2.85-17.84-6.67-25.71-11.07,1.37-5.59,2.47-3.41,22.41.24,2.31,6.11,23.81,6.81,25.6"/></svg>