<?xml version="1.0" encoding="UTF-8"?><svg id="svg2" xmlns="http://www.w3.org/2000/svg" viewBox="0 0 514.81 474.17"><defs><style>.cls-1{fill-rule:evenodd;}</style></defs><path id="path90" class="cls-1" d="m96.96,288.93c0-4.87-.31-2.35,1.38-2.97l3.62,1.6c13.51,8.58,2.96,4.06,23.78,13.48,20.94,9.47,38.43,9.34,60.2,9.34,20.31,0,44.96-14.54,50.24-13.88-1.78,16.45-37.13,26.07-48.87,26.07-28.85,0-37.67,2-65.56-10.59-8.7-3.93-24.79-13.86-24.79-23.04h0Zm68.4,11.53c-9.31,0-28.23-4.45-34.83-6.95-12.85-4.86-30.68-15.88-34.6-29.82-5.88-20.88,24.27-35.24,39.76-37.49,6.33-.92,16.78-3.46,22.81-3.46,17.34,0,40.38,3.14,55.36,10.79,58.75,30.01,13.34,66.92-29.29,66.92h-19.22Zm-19.46-84.81c-28.37,3.72-59.09,13.86-60.34,47.15-.4,10.72-2.19,22.53,2.36,30.87,5.15,9.46,8.57,13.41,16.69,18.93,7.39,5.02,14.45,8.5,23.44,12.3,33.46,14.16,118.69,12.53,122.53-40.05,1.34-18.35,2.98-28.3-8.8-42.15-5.93-6.97-11.75-11.45-20.35-15.33-24.76-11.16-46.66-15.52-75.53-11.73"/><path id="path92" class="cls-1" d="m234.11,211.96c6.26-3.42,10.17-1,18.85.29,13.75,2.03,45.84-4.83,56.95-10.68,10.02-5.28,22.83-10.81,30.44-17.58,4.68-4.17,8.01-7.55,11.79-11.54,9.88-10.41,4.42-10.23,10-11.71,7.5,7.9-4.07,20.55-9.23,26.23l-4.84,4.75c-11.62,11.01-27.21,21.15-42.27,25.05-10.11,2.62-18.13,6.74-32.05,6.74-11.55,0-35.45.47-39.65-11.54h0Zm78.7-97.42c47.38-5.6,63.65,31.96,15.83,65.97-59.3,42.17-142.63,23.13-96.81-30.95,5.66-6.68,26.04-20.21,34.05-23.6,24.73-10.47,20.55-8.3,46.93-11.42h0Zm62.26,45.39c0-10.37-9.97-42.44-28.29-49.66-17.43-6.87-19.82-5.62-37.34-5.62-9.97,0-36.68,7.73-45.84,12.19-21.69,10.56-56.59,36.32-54.51,62.31.74,9.3,10.42,33.68,18.13,41.06,19.38,18.55,56.5,13.6,82.09,5.45,23.63-7.53,53.75-27.99,63.8-52.87,1.26-3.12,1.97-9.44,1.97-12.86"/><path id="path94" class="cls-1" d="m312.71,322.72c15.46,13.94,32.8,17.81,47.36,23.97,12.49,5.28,34.69,1,42.44,4.96-2.02,4.42-2,2.87-8.34,5.56-11.71,4.97-19.46,5.91-33.37,2.47-35.32-8.73-86.19-38.1-84.55-75.07,10.65,6.07,9.04,12.85,23.09,26.77,4.52,4.48,8.21,6.68,13.38,11.34h0Zm-1.92-78.16c14.66-3.87,47.12,5.37,59.17,12.68,16.73,10.15,44.27,28.97,49.9,50.14,4.97,18.65-6.05,30.63-23.82,32.65-26.37,3-40.46-4.01-59.36-12.48-4.67-2.09-4.19-2.51-8.75-5.03-4.61-2.55-4.25-2.38-8.73-6.29-3.2-2.79-4.31-3.11-7.61-6.12-3.98-3.63-10.77-10.27-13.91-14.93-8.33-12.36-15.94-26.72-5.89-40.33,3.47-4.7,11.15-8.21,18.99-10.28h0Zm-.3-8.38c-19.71,5.9-19.56,2.47-32.2,22.94-2.22,3.59-4.67,8.36-6.89,12.34-12.65,22.75,6.85,50.25,21.99,63.69l33.69,22.58c20.66,11.19,67.58,20.51,85.38-1.45,3.02-3.73,4.59-6.63,6.84-11.04,2.27-4.44,4.11-7.2,6.72-12.48,13.92-28.2-12.53-56.75-31.62-71.17-21.18-15.99-60.9-32.3-83.92-25.41"/><path id="path96" class="cls-1" d="m136.71,247.76c6.43,10.93,29.21-13.06,35.99,5.9-13.57,4.05-20.71,13.04-14.42,28.42,13.34.7,14.47-3,25.08-5.38,5.88-1.32,19.7-3.69,16.57-10.91-1.56-1.99-4.41-1.58-7.68-.94-12.28,2.39-19.77,7.5-24.85,4.26,8.02-9.51,18.06-11.1,16.42-21.35-2.21-13.85-42.36-13.21-47.11,0"/><path id="path98" class="cls-1" d="m350.06,268.17c-.29,14.87,8.04,1.8,8.25,17.88l-14.27,18.52c-1.94,3.77.13,15.58,14.33-3.76,15.24-20.76,15.49-21.87,3.87-29.02-6.95-4.28-2.99-5.64-12.18-3.62"/><path id="path100" class="cls-1" d="m266.1,153.83c17.2-3.71,13.77-8.1,24.16,8.84,3.88,6.33,3.78,7.51,9.58,11.73,6.93-6.36-.01-12.58-3.21-18.16-3.61-6.29-8.02-13.37-12.1-18.04-7.6-.48-9.16,2.31-13.77,5.06-5.06,3.01-8.19,4.76-4.67,10.58"/></svg>