<?xml version="1.0" encoding="UTF-8"?><svg id="svg2" xmlns="http://www.w3.org/2000/svg" viewBox="0 0 514.81 474.17"><defs><style>.cls-1{fill-rule:evenodd;}</style></defs><path id="path86" class="cls-1" d="m319.11,283.61c0-7.41.88-8.37,8.55-8.37,20.82-.03,77.07-1.82,93.88,1.05,1.52,11.3,1.98,43.33-1.3,51.95-9.8.7-95.28.09-100.02-1.51-2.38-6.68-1.11-34.22-1.11-43.11h0Zm-227.07-45.29c0-7.38,3.63-8.05,9.89-8.05h85.76c5.17,0,9.5,1.06,9.5,6.67,0,16.41.82,75.48-.44,87.28-10.85,6.9-61.3,3.54-83.16,3.57-7.68.01-21.56,2.26-21.56-5.77v-83.71Zm113.66-56.65c3.65-2.84,4.62-5.53,10.82-5.3l46.66-.19c32.27-.23,46.8-4.4,46.8,11.36,0,18.15,1.54,131.3-1.06,139.36-16.47,2.03-74.58.9-95.13.9-9.04,0-8.38-4.37-8.26-12.57.09-6.43.07-12.85.07-19.28l.12-114.28Zm-20.74,39.45c-14.82,0-89.79-2.11-99.63,1.41-4.69,14.57-2.42,81.3-2.42,100.87,0,11.44,1.19,14.31,12.86,14.31h321.09c20.37.02,14.92-1.35,15.03-51.36.01-6.71,1.54-16.48-2.97-19.38-15.73-6.66-98.23,3.01-108.73-3.35-3.62-8.91-.92-49.02-1.1-62.45-.48-37.26,11.99-32.56-51.81-32.75l-63.18.07c-8.76.85-7.01,7.22-6.93,16.28.3,32.61,3.11,36.35-12.22,36.35"/><path id="path88" class="cls-1" d="m249.76,205.36c1.47,6.19,4.1,3.52,5.69,11.75,1.03,5.34.41,11.53.41,17.09-.02,15.24-2.44,21.14,2.82,24.04,10.03,5.52,6.2-19.66,6.32-37.76.09-13.8.72-23.16-15.25-15.12"/></svg>