<?xml version="1.0" encoding="UTF-8"?><svg id="svg2" xmlns="http://www.w3.org/2000/svg" viewBox="0 0 514.81 474.17"><defs><style>.cls-1{fill-rule:evenodd;}</style></defs><path id="path68" class="cls-1" d="m312.87,266.11c7.37,6.87,6.19,10.12,9.75,19.19,1.91,4.88,2.64,3.35,4.49,10.56,1.52,5.89,18.09,45.01,18.21,48.9.4,14.36-21.51-.93-31.37,6.11-2.01,1.44-6.44,7.71-8.08,9.82-3.81,4.88-4.4,5.52-10.68,8.26l-13.04-32.21c-2.69-8.67-18.99-44.94-16.05-48.73.61-.79,14.29-5.39,17.17-6.19,7.23-2.02,17.55-6.55,22.44-10.5l7.16-5.22Zm-94.68,102.98c-18.47-9.06-3.75-24.12-39.33-18.42l-5.73.31c-8.85-1.11,2.53-23.79,6.07-31.86,1.64-3.75,1.92-6.92,3.93-11.12,2.4-4.99,2.2-4.81,3.71-10.14l12.88-32.09c8.72,3.55,15.04,9.88,23.16,13.59,7.51,3.43,20.33,5.01,26.21,9.44.43,6.47-25.47,74.04-30.89,80.29h0Zm48.03-239.02c15.57,0,36.88,13.65,47.43,25.53,16.55,18.65,25.31,56.46,9.75,81.31-6.4,10.22-6.97,11.86-15.41,20.23-39.08,38.76-118.01,21.21-124.56-50.62-1.63-17.78,7.27-38.42,18.51-51.35l8.87-8.98c19.85-15.71,34.19-16.12,55.43-16.12Zm-44.03,254.49c3.81-2.57,7.69-14.65,9.27-20.07l16.15-41.4c1.81-6.29,1.48-5.08,3.81-9.99,1.03-2.15.97-2.57,1.91-4.96l3.28-5.51c7.19,4.59,7.59,12.48,10.53,20.29l21.03,54.38c1.93,5.88,2.03,5.45,6.87,8.63,6.15-4.05,12.12-12.32,17.35-18.73,11.95-14.64,8.2-7.06,39.15-4.8,14.99,1.09,5.44-12.21,3.51-17.64l-31.91-87.09c-.07-3.78,11.93-21.25,13.77-29.08,1.09-4.6,1.32-8.3,2.09-13.06,3.09-19.12-.77-40.21-10.4-54.33-9.12-13.36-4.8-8.76-16.65-20.35-10.88-10.64-35.95-21.09-55.33-20.74-24.51.44-55.09,16.23-67.52,36.01-12.12,19.31-15.59,34.24-13.25,60.68,2.16,24.4,17.89,34.78,15.99,43.34-.68,3.03-2.59,4.92-4.01,9.99l-28.89,76.69c-2.33,6.97-9.88,17.31,5.51,15.41,7.4-.91,18.03-4.13,25.77-3.46,15.89,1.37,20.73,29.32,32,25.8"/><path id="path70" class="cls-1" d="m290.38,188.76c4.59-6.4,11.21-10.38,6.79-18.01-7.16.14-9.87,7.13-13.95,12.22l-23.76,31.13c-12.59,18.05-13.77,13.98-27.2,2.35-10.12-8.77-8.41-7.32-15.15-6.15-.39,8.67,8.23,12.33,14.76,17.45,5.72,4.47,9.97,11.03,19.44,12.05l39.07-51.03"/></svg>