<?xml version="1.0" encoding="UTF-8"?><svg id="svg2" xmlns="http://www.w3.org/2000/svg" viewBox="0 0 514.81 474.17"><defs><style>.cls-1{fill-rule:evenodd;}</style></defs><g id="g16"><path id="path18" class="cls-1" d="m253.11,379.89c-15.11,0-32.07-12.02-38.66-19.1-44.35-47.69,14.1-121.86,69.88-91.85,4.54,2.44,11.64,7.98,15.57,11.92,21.54,21.55,21.07,58.37-.37,80.89-13.81,14.51-27.6,18.14-46.42,18.14h0Zm18.05-125.26c.82-7.33,5.39-11.59,11.48-18.26l80.96-91.92c4.44-5.44,6.07-12.22,16.69-11.24,2.97,4.81,3.61,6.57,6.75,11.05l20.49,31.71c6.59,10.36-3.31,14.76-8.68,21.58-5.26,6.67-9.98,11.97-15.91,18.35-3.13,3.36-4.56,6.03-7.96,9.94l-24.45,27.66c-6.38,7.4-24.66,32.72-34.16,34.06-8.08-12.69-17.58-21.06-30.84-27.99-4.48-2.35-10.44-3.14-14.36-4.93h0Zm-27.08.53c-13.14,3.36-23.03,8.67-31.59,15.39-8.85,6.94-12.92,25.24-22.74,12.12l-37.58-43.47c-7.75-7.57-45.79-51.24-46.26-56.26-.36-3.86,30.92-48.18,38.79-51.17,4.29,2.76,15.68,16.62,20.16,22.01,2.78,3.32,3.67,4.71,6,7.75l50.92,60.23c6.06,6.57,20.74,23.93,22.3,33.4h0Zm51.26-47.18l-31.84,36.78c-3.12,2.71-4.97,2.81-8.68,2.73l-76.78-91.77c-4.5-5.34-8.36-11.18-12.77-16.09-3.33-3.7-14.52-13.48-.67-13.48h191.42c12.83,0,1.83,10.66-.27,13.24l-37.4,40.87c-6.61,2.83-62.8,1.59-77.6,1.51-8.94-.05-17.34-1.68-20.29,5.95,11,7.26,71.99-2.18,83.32,3.74,1.44,2.37,2.43-2.82.79,4.97-.99,4.79-2.88,4.52-9.22,11.55Zm-43.6,181.05c9.92,0,24.36-1.14,33.63-5.71,1.57-.77,7.71-4.28,9.62-5.54,9.74-6.41,15.99-14.3,21.62-23.71,17.47-29.27.91-48.18,10.47-59.49l35.05-40.45c8.6-10.8,18.87-21.21,28.24-32.09,5.52-6.42,9.1-10.56,13.76-16.47,20.58-26.04,24.41-13.81-2.36-55.43-4.2-6.52-7.48-11.9-11.8-18.35-4.28-6.39-5.86-14.78-16.09-14.78h-225.05c-12.43,0-11.91,6.45-17.52,13.41-7.96,9.88-37.32,48.32-37.19,53.08.18,5.87,40.32,49.1,47.69,57.86l35.6,41.25c23.77,26.02,11.25,12.3,13.48,45.07,1.31,19.24,8.76,31.28,19.14,41.68,9.37,9.4,29.65,19.67,41.73,19.67"/></g></svg>