<?xml version="1.0" encoding="UTF-8"?><svg id="svg2" xmlns="http://www.w3.org/2000/svg" viewBox="0 0 514.81 474.17"><defs><style>.cls-1{fill-rule:evenodd;}</style></defs><path id="path20" class="cls-1" d="m364.78,321.88c2.2,7.43.77,18.93-.81,25.19-41.33,4.44-144.84-.99-199.55,1.08-13.43.51-13.71-2.01-13.8-15.31-.09-13.58,1.83-13.29,15.17-13.18,33.41.28,191.44-2.55,199,2.22h0Zm-8.21-11.32h-197.77c-14.73,0-10.42-8.69-12.85-21.03-1.24-6.27-8.96-24.69.68-24.69,11.6,0,60.09,24.95,69.23,18.04l20.47-26.39c5.83-7.43,15.57-22.66,21.73-24.96l37.05,47.5c1.9,2.43,4.25,3.92,6.57,6.25l58.65-18.74c21.31-8.96,8.42,21.03,6.41,33.95-1.31,8.44-1.1,10.09-10.18,10.09h0Zm-224.79-91.78c19.29-6.05,21.85,26.78,6.25,29.96-4.85.99-8.47-.11-11.41-2.89-7.04-6.64-8.33-13.56-3.4-21.49,3.37-5.44,2.83-3.79,8.56-5.58Zm245.35-.15c18.07-6.01,22.96,27.44,5.25,30.21-10.17,1.59-15.79-6.71-16.87-12.54-1.73-9.38,3.32-14.9,11.62-17.66Zm-119.36-3.32c-6.3,0-10-2.49-13.46-8.97-5.62-10.55,4.31-25.8,18.04-20.91,13.74,4.89,11.3,29.88-4.58,29.88h0Zm-10.75,7.76c-1.19,9.07-18.71,28.41-24.88,37.14-16.8,23.79-16.82,10.69-40.54,5.96-2.29-.46-27.96-8.18-29.44-11.13-.91-10.55,8.9-10.31,5.88-27.08-3.77-20.97-31.74-25.81-42.08-9.45-5.33,8.43-5.81,17.47-1.42,27.05,7.09,15.45,17.85-.85,22.4,47.59,1.02,10.91,4.89,20.35,5.24,30.38.29,8.21-2.58,24.35,1.86,31.29,3.55,3.05,172.07,1.46,202.91,1.46,10.85,0,18.77,1.71,27.12-3.18,3.57-18.8-.63-41.13,3.45-62.45.46-2.43,5.22-27.42,5.65-28.51,3.55-9.15,9.2-2.65,17.06-17.38,8.81-16.51-2.38-39.64-26.98-35.15-9.52,1.73-13.82,9.45-16.61,17.72-3.61,10.7,3.73,17.19,6.71,24.56-3.62,6.75-3.72,6.56-12.04,8.41-7.45,1.65-9.22,3.98-16.38,5.55-24.74,5.42-27.51,17.07-40.93-3.56-4.96-7.62-26.26-31.51-26.01-38.2.14-3.71,25.7-20,5.87-41.82-8.32-9.16-31.43-13.44-39.03,11.13-4.53,14.64,5.16,23.04,12.19,29.68"/></svg>