<?xml version="1.0" encoding="UTF-8"?><svg id="svg2" xmlns="http://www.w3.org/2000/svg" viewBox="0 0 514.81 474.17"><defs><style>.cls-1{fill-rule:evenodd;}</style></defs><path id="path52" class="cls-1" d="m187.76,317.19c-.09-1.23,20.49-38.26,23.11-42.59,11.69-19.31,5.58-21.76,43.65-19.88,10.09.5,18.87-.12,29.27.51,11.83.72,14.4,5.88,21.41,19.87l8.96,15.68c1.64,2.65,4.66,7.31,6.21,10.3.86,1.66,1.49,3.65,2.62,5.6,2.43,4.18,8.03,7.66,1.39,18.24-38.15,60.79-17.83,52.47-64.05,52.41-10.89-.02-22.23.91-32.91,0-7.71-.66-6.96-3.12-15.38-17.32-2.39-4.03-24.17-41.12-24.3-42.82h0Zm.21-122.23c.11-3.83,3.44-14.55,4.85-18.03l6.48-15.46c2.89-6.08,9.99-27.85,13.02-30.68,6.32,1.18,6.45,1.72,8.05,8.15l8.14,24.78c2.13,4.94,2.3,5.55,3.87,11.22,1.55,5.58,3.13,6.38,4.65,11.94,1.96,7.17,1.5,6.18,4.27,12.16,2.96,6.39,6.32,17.14,5,23.2-14.63-4.53-23.07-10.6-30.03-13.34l-28.29-13.94Zm131.57-17.9c1.39,2.94,1.94,6.07,3.19,9.19,3.06,7.58,6.93,12.19-4.06,16.37l-47.6,20.99c-4.02,1.99-5.67,2.06-10.71,1.65-3.94-7.96-6.94-20.51-10.89-29.01l-19.4-57.3c-8.74-29.27-19.63-25.26,56.34-25.26,10.03,0,10.35,6.29,13.32,14.53l19.8,48.84Zm-142.58,23.5l76.38,36.97c-.49,5.84-.49,7.89-6.59,8.8-3.56.53-12.38-.12-16.65-.1-19.42.08-15.21,5.02-32.24,33.13-4.59,7.58-7.26,12.81-12.03,20.91-4.89,8.31-10.89,12.21-5.47,22.76l35.58,63.15c11.6.73,72.34,2.03,80.09-.09,7.13-1.95,6.24-5.54,9.73-11.1l24.39-41.58c12.54-22.07,9.05-14.56-4.54-41.62l-23.57-41.04c-4.59-6.55-26.32-3.97-36.33-4.84-5.13-13.85,7.21-12.33,30.26-23.47,50.71-24.52,44.17-11.95,35.11-40.5l-8.67-21.46c-2.18-4.75-6.6-16.38-7.87-20.89-1.61-5.76-2.91-6.13-4.67-10.59-1.74-4.43-2.08-6.2-4.15-10.88-4.92-11.14-1.28-12-16.5-12.55-8.76-.31-68.23-1.06-73.86.41-7.68,2.01-8.38,12.39-15.47,28.6l-8.1,22.18c-4.02,10.3-15.9,33.56-14.83,43.8"/><path id="path54" class="cls-1" d="m230.64,310.65c4-5.96,9.73-3.25,15.91-7.27,6.95-4.52,4.89-8.9,9.67-13.39,10.41,2.19,5.85,8.77,12.74,13.05,4.14,2.57,12.51,4.37,17.3,7.12-2.27,6.64-8.3,6.7-10.22,13.06-1.76,5.83,1.46,11.52-.53,18.7-9.54.73-7.57-5.19-17.92-5.15-8.02.04-16.83,13.07-17.51-.04-.02-.43.4-3.05.44-3.35,2.64-18.66-4.98-10.44-9.89-22.74h0Zm-18.57-3.9c1.29,1.04,15.81,15.82,16.84,17.17,7.17,9.45-1.69,15.22-1.16,32.67,10.43,2.88,6.62,1.15,14.18-2.93,3.05-1.65,11.68-6.24,14.39-6.54,11.93-1.3,19.68,12.52,28.95,10.29,2.29-1.54,2.17-7.65,1.92-10.36-.45-4.75-1.31-9.93-1.78-13.9-2.01-17.25,32.68-28.59,12.13-34.06-9.57-2.55-17.66.73-24.19-5.88-7.55-7.66-12.6-41.02-24.46-10.82-1.69,4.32-3.18,6.6-5.22,9.9-8.64,13.99-23.62-3.47-31.59,14.46"/></svg>