<?xml version="1.0" encoding="UTF-8"?><svg id="svg2" xmlns="http://www.w3.org/2000/svg" viewBox="0 0 514.81 474.17"><defs><style>.cls-1{fill-rule:evenodd;}</style></defs><path id="path64" class="cls-1" d="m221.91,327.03c-.29-7.82,1.27-35.44,5.09-41.02,1.96,2.84,19.71,49.71-5.09,41.02Zm34.96-103.7c0-4.98,1.4-6.85,3.27-9.25,5.6,3.18,6.36,8.1,14.89,9.47,10.65,1.71,10.81-3.48,18.83,1.65l.35,17.35c0,4.82,2.47,81.79-2.71,85.3l-26.67-5.13c-2.63-9.89-2.17-23.26-3.8-34.71-5.13-36.07-4.16-28.4-4.16-64.68h0Zm114.04-67.42c7.64-2.1,16.27-.19,21.56,3.47,8.25,5.69,4.47,12.09,4.59,22.78.68,60.08,3.52,55.86-11.76,53.11-3.44-.62-8.44-.87-11.35-2.49-6.12-3.41-4.32-14.77-4.32-23.17.01-12.66-1.55-44.15,1.28-53.69h0Zm-185.67,39.97c0-14.75,6.31-24.47,21.17-24.47s38.32-2.41,46.92,3.62l18.87,18.18c.13.13,2.03,2.06,2.03,2.07,11.81,11.13,10.93-6.77,26.6-8.6,5.16,6.09,4.89,8.9-1.56,15.62-3.81,3.98-8.97,9.67-14.37,11.88-8.76,3.59-13.03-2.03-17.45-6.59-12.89-13.27-9.89-12.52-19.35-11.23-2.04,6.79-1.53,31.63-1.21,39.33l7.63,83.5c1.53,8.81,3.96,12.96,1.93,23.12l-8.37-.02c-6.69-17.02-6.01-81.52-16.95-89.34-5.59.15-6.73,1.41-10.15,2.87-2.15,6.81-1.89,15.53-2.65,23.15-.89,9.03-2.99,14.18-3.96,22.51-1.61,13.66.16,34.1-9.32,42.73-8-4.5-4.28-15.33-3.64-24.57.67-9.35,1.28-17.18,3.16-26.82,4.17-21.42,3.71-55.33,3.53-79.09-.07-9.57,2.93-25.58-4.43-28.47-11.92,10.88,7.32,50.29-11.37,57.02-5.91-4.26-7.05-3.92-7.05-13.46v-32.94Zm117.35-79.59c0-11.05,38.24-5.84,49.65,1,5.49,3.29,9,10.59,8.96,19.58l.05,45.29c.13,18.5-12.73,3.93-29.89,2.63-8.41-.64-14.2.92-20.32-2.94-4.59-2.9-8.45-6.58-8.45-13.42v-52.15Zm0,102.92c0-8.12,3.2-10.3,7.13-14.72,3.51-3.93,2.45-4.78,3.96-6.97,5.71-8.33,36.45-.84,43.41,8.28,14.24,18.65-14.69,32.35,26.87,39.05,13.21,2.14,10.67,9.35,18.68,9.9,3.89-3.46,4.33-9.39,4.33-16.33v-64.5c0-37.46-34.6-18.79-37.16-37.23-.31-2.23-.12-4.32-.27-6.58-2.23-33.89-55.76-28.37-66.09-31.05-1.19-7.01.45-16.27-2.96-20.59-10.04,1.74-6.29,20.6-6.29,29.58v60.38c0,5.08-.77,7.36-3.55,10.12l-3.73,3.13c-7.09,6.44-9.69,3.54-16.29-3.36-12.55-13.1-15.87-16.82-38.13-16.82-27.85,0-55.15-4.28-55.71,34.32-.83,57.39-1.81,49.66,21.29,57.53,1.65,27.25-4.81,48.21-6.45,67.81-.68,8.2-.44,15.23-1.75,23.32-14.88,9.63-21.72,12.95-35.67,24.24-3.36,2.72-6.97,5.38-10.72,8.48l-32.07,28.35c-3.32,2.66-7.87,5.18-5.19,11.28,4.67,4.67,21.84-14.75,29.69-21.08l29.56-23.95c43.85-31.65,28.79-14.41,44.67-19.73,6.12-2.05,4.93-2.19,7.37-6.51,3.04-5.35,9.69-8.81,16.59-9.58,4.05,6.68,6.16,16.66,17.56,16.77,14.56.13,12.08-9.89,17.03-17.74,21.17-4.53,27.31,13.34,29.64,15.38,8.07-1.77,3.71-7.98,15.64-1.4,23.08,12.72,42.83,27.47,62.49,44.55,2.07,1.8,3.83,3.56,5.76,5.25l12.21,11.1c4.03,3.5,17,14.42,14.63,1.83-.84-4.41-28.25-26.69-34.23-31.6-4.95-4.06-8.33-6.63-12.97-10.39-10.84-8.79-30.21-22.92-42.84-28.48-6.77-2.99-9.33-5.63-15.47-7.71-2.24-22.63-.99-82.87-.99-114.33"/><path id="path66" class="cls-1" d="m223.06,110.46c26.77-7.12,32.16,30.31,11.52,35.32-18.25,4.43-31.49-11.44-22.29-27.73,3.41-6.01,4.59-5.95,10.77-7.6Zm33.2,23.67c7.89-25.51-32.08-48.94-50.91-23.06-2.47,3.38-2.99,4.3-4,9.7-7.16,38.22,37.72,45.32,50.33,22.91,1.39-2.46,3.68-6.66,4.57-9.55"/></svg>