<?xml version="1.0" encoding="UTF-8"?><svg id="svg2" xmlns="http://www.w3.org/2000/svg" viewBox="0 0 514.81 474.17"><defs><style>.cls-1{fill-rule:evenodd;}</style></defs><g id="g26"><path id="path28" class="cls-1" d="m431.25,172.82c32.4,6.79,5.99,15.37,5.99,31.5,0,11.22,6.52,15.67,8.37,29.73-34.26-3.86-18.87-7.5-58.5-5.19-3.74-8.04-2.5-19.25-2.44-30.03.17-24.21-4.37-12.27-8.39-23.82,20.86-10.95,34.96-6.38,54.96-2.19h0Zm-134.03,48.3c-1.73,8.62.75,10.55,16.54,5.65,7.02-2.18,25.69-7.36,31.7-10.8,8.65-4.94,23.74-15.49,27.76-15.36,3.39,5.91,2.95,42.56,2.17,53.23-.62,8.6-1.76,7.81-7.03,12.44-13.24,11.64-31.66,21.4-48.33,25.86-10.15,2.71-11.72,15.87,10.48,6.28,10.51-4.55,10.83-2.56,25.44-11.62,5.62-3.49,5.35-3.23,10.42-7.38,3.86-3.16,7.35-5.88,10.48-8.75,13.15-12.05,5.38-11.71,8.4-28.81,8.12-8.08,24.37-6.19,36.31-3.24,6.36,1.57,12.68,1.52,18.92,4.47,8.16,3.86,20.27,10.84,18.95-2.53-.2-2.03-1.55-6.67-2.8-9.38-19.31-41.6-3.31-29.02,3.87-56.15-5.11-3.33-1.96-3.55-9.29-5.69-6.18-1.8-6.3-2.26-11.1-4.12-5.54-2.15-18.66-3.78-25.14-4.93-9.55-1.7-17.22-1.4-26.78.94-28.35,6.92-35.85,5.99-35.55,25.25.18,12.55-.35,15.96-9.28,20.51l-33.39,11.63c-5.57.75-8.83.31-12.76,2.5"/></g><g id="g30"><path id="path32" class="cls-1" d="m77.59,207.07c0-13.06-15.24-22.66-7.32-30.19,5.5-5.24,58.64-16.35,68.12,0-2.92,3.87-6.12,3.7-7.63,8.45-2.63,8.35,2.54,31.03-3.03,43.97-41.09-3.68-45.2,4.29-58.22,4.65-1.75-8.97,8.08-20.35,8.08-26.87h0Zm-23.28-30.19c4.62,12.98,16.12,22.95,12.72,33.65-1.09,3.4-2.1,3.26-3.69,7.34l-8.95,27.12c8.87,6.41,11.48-.11,24.24-3.64,12.56-3.47,25.06-5,37.01-5,16.93,0,13.53,7.61,14.49,21.61.98,14,29.08,28.93,40.73,35.25,5.76,3.12,8.94,2.89,13.93,5.25,5.65,2.67,7.35,5.26,15.12,2.48,3.26-8.79-2.87-7.21-24.34-15.15l-26.09-16.54c-14.22-11.55-10.31-16.14-10.17-49.83.03-9.34-.99-12.81,2.31-19.29,5.05.89,4.2.99,7.7,3.45,17.1,11.98,39.38,22.54,59.89,25.23,12.74,1.67,13.04-5.5,7.25-8.45-2.96-1.51-14.12-1.67-20.59-4.34l-18.02-6.72c-4.37-1.84-4.82-.8-8.87-3.41-1.6-1.03-4.26-3.51-6.57-5.3-1.09-19.17,4.85-26.14-10.88-32.12-20.62-7.85-26.36-9.09-48.24-9.09-.03,0-27.09,4.95-27.41,5.06-14.02,4.71-15.82,5.53-21.58,12.44"/></g><g id="g34"><path id="path36" class="cls-1" d="m206.45,253.76c9.55-7.32,29.2-5.93,33.27-9.1,4.66-3.62,10.63-21.97,15.21-27.29,10.91,1.24,5.66,2.23,10.78,11.19,2.12,3.73,2.07,2.53,3.79,7.25,7.33,20.15,25.89,6.51,38.13,17.92-.8,5.13-16.14,18.67-21.78,22.88-1.3,23.81,13.34,41.66-4.39,33.74l-24.47-11.51c-8.85,1.98-21.08,13.17-31.72,14.06-3.3-22.56,11.91-26.86-1.03-40.13-5.67-5.82-16.25-14.17-17.8-19h0Zm7.92,69.96c8.12,5.59,15.24-1.34,20.81-3.98,30.16-14.25,15.57-12.45,42.78-.52,4.65,2.04.41-.17,4.56,2.33,4.2,2.54,12.69,7.65,17.52,2.7,6.36-12.06-12.18-34.64-.4-47.05,11.76-12.39,38.79-31.66,14.51-35.24-24.63-3.63-34.09,3.38-45.65-28.55-2.07-5.74-7.86-18.59-14.99-12.73-.24.19-4.03,5.4-4.65,6.52-4.17,7.53-9.46,23.22-14.61,27.92-11.71,10.7-49.87-.61-42.78,18,1.34,3.52,1.36,2.15,2.44,3.26l8.52,7.98c11.29,11.06,17.55,12.9,16.42,23.87-.93,8.87-7.2,29.66-4.49,35.49"/></g></svg>